<?xml version="1.0" encoding="UTF-8"?>
<svg xmlns="http://www.w3.org/2000/svg" xmlns:xlink="http://www.w3.org/1999/xlink" width="841.889893pt" height="595.28pt" viewBox="0 0 841.889893 595.28" version="1.1">
<g id="surface1">
<path style=" stroke:none;fill-rule:nonzero;fill:rgb(100%,100%,100%);fill-opacity:1;" d="M 0 595.277344 L 841.890625 595.277344 L 841.890625 0.00390625 L 0 0.00390625 Z M 0 595.277344 "/>
<path style=" stroke:none;fill-rule:nonzero;fill:rgb(28.999329%,28.599548%,28.199768%);fill-opacity:1;" d="M 221.085938 331.609375 L 243.582031 370.539063 L 266.039063 331.609375 L 269.894531 331.609375 L 269.746094 331.871094 L 269.746094 391.5 L 266.378906 391.5 L 266.378906 337.710938 L 243.582031 377.164063 L 220.75 337.710938 L 220.75 391.5 L 217.382813 391.5 L 217.382813 331.871094 L 217.230469 331.609375 "/>
<path style=" stroke:none;fill-rule:nonzero;fill:rgb(28.999329%,28.599548%,28.199768%);fill-opacity:1;" d="M 308.824219 365.183594 L 299.691406 340.070313 L 290.558594 365.183594 Z M 310.058594 368.554688 L 289.320313 368.554688 L 280.976563 391.496094 L 277.382813 391.496094 L 299.691406 330.226563 L 321.960938 391.496094 L 318.40625 391.496094 "/>
<path style=" stroke:none;fill-rule:nonzero;fill:rgb(28.999329%,28.599548%,28.199768%);fill-opacity:1;" d="M 332.816406 335.015625 L 332.816406 367.320313 L 342.996094 367.320313 C 347.4375 367.320313 351.238281 365.742188 354.394531 362.582031 C 357.550781 359.425781 359.128906 355.617188 359.128906 351.148438 C 359.128906 346.683594 357.550781 342.878906 354.394531 339.734375 C 351.238281 336.589844 347.4375 335.015625 342.996094 335.015625 Z M 344.007813 370.6875 C 343.683594 370.710938 343.347656 370.726563 342.996094 370.726563 L 332.816406 370.726563 L 332.816406 391.496094 L 329.445313 391.496094 L 329.445313 331.609375 L 345.167969 331.609375 C 349.734375 332.234375 353.613281 334.144531 356.808594 337.335938 C 360.625 341.15625 362.535156 345.757813 362.535156 351.148438 C 362.535156 356.5625 360.625 361.179688 356.808594 364.996094 C 354.164063 367.644531 351.128906 369.378906 347.714844 370.199219 L 361.523438 391.496094 L 357.371094 391.496094 "/>
<path style=" stroke:none;fill-rule:nonzero;fill:rgb(28.999329%,28.599548%,28.199768%);fill-opacity:1;" d="M 373.578125 335.015625 L 373.578125 367.320313 L 383.757813 367.320313 C 388.199219 367.320313 391.996094 365.742188 395.15625 362.582031 C 398.3125 359.425781 399.890625 355.617188 399.890625 351.148438 C 399.890625 346.683594 398.3125 342.878906 395.15625 339.734375 C 391.996094 336.589844 388.199219 335.015625 383.757813 335.015625 Z M 384.769531 370.6875 C 384.445313 370.710938 384.105469 370.726563 383.757813 370.726563 L 373.578125 370.726563 L 373.578125 391.496094 L 370.207031 391.496094 L 370.207031 331.609375 L 385.929688 331.609375 C 390.496094 332.234375 394.375 334.144531 397.570313 337.335938 C 401.386719 341.15625 403.296875 345.757813 403.296875 351.148438 C 403.296875 356.5625 401.386719 361.179688 397.570313 364.996094 C 394.925781 367.644531 391.890625 369.378906 388.472656 370.199219 L 402.285156 391.496094 L 398.132813 391.496094 "/>
<path style=" stroke:none;fill-rule:nonzero;fill:rgb(28.999329%,28.599548%,28.199768%);fill-opacity:1;" d="M 438.667969 365.183594 L 429.535156 340.070313 L 420.402344 365.183594 Z M 439.902344 368.554688 L 419.164063 368.554688 L 410.820313 391.496094 L 407.226563 391.496094 L 429.535156 330.226563 L 451.804688 391.496094 L 448.25 391.496094 "/>
<path style=" stroke:none;fill-rule:nonzero;fill:rgb(28.999329%,28.599548%,28.199768%);fill-opacity:1;" d="M 462.660156 362.492188 L 462.660156 391.5 L 459.289063 391.5 L 459.289063 331.609375 L 462.660156 331.609375 L 462.660156 357.101563 L 481.785156 331.609375 L 486.128906 331.609375 L 468.160156 355.714844 L 491.367188 391.5 L 487.214844 391.5 L 465.953125 358.410156 "/>
<path style=" stroke:none;fill-rule:nonzero;fill:rgb(28.999329%,28.599548%,28.199768%);fill-opacity:1;" d="M 530.296875 331.609375 L 530.296875 334.980469 L 503.722656 334.980469 L 503.722656 359.871094 L 530.296875 359.871094 L 530.296875 363.238281 L 503.722656 363.238281 L 503.722656 388.128906 L 530.296875 388.128906 L 530.296875 391.5 L 500.351563 391.5 L 500.351563 331.609375 "/>
<path style=" stroke:none;fill-rule:nonzero;fill:rgb(28.999329%,28.599548%,28.199768%);fill-opacity:1;" d="M 588.386719 381.953125 L 590.933594 384.238281 C 585.09375 389.554688 578.21875 392.210938 570.308594 392.210938 C 561.824219 392.210938 554.59375 389.222656 548.617188 383.246094 C 542.640625 377.269531 539.652344 370.039063 539.652344 361.554688 C 539.652344 353.097656 542.640625 345.871094 548.617188 339.882813 C 554.59375 333.894531 561.824219 330.898438 570.308594 330.898438 C 578.21875 330.898438 585.09375 333.558594 590.933594 338.871094 L 588.386719 341.191406 C 583.246094 336.625 577.21875 334.34375 570.308594 334.34375 C 562.796875 334.34375 556.382813 337 551.070313 342.316406 C 545.753906 347.632813 543.097656 354.042969 543.097656 361.554688 C 543.097656 369.09375 545.753906 375.515625 551.070313 380.832031 C 556.382813 386.144531 562.796875 388.804688 570.308594 388.804688 C 577.21875 388.804688 583.246094 386.519531 588.386719 381.953125 "/>
<path style=" stroke:none;fill-rule:nonzero;fill:rgb(28.999329%,28.599548%,28.199768%);fill-opacity:1;" d="M 603.660156 364.660156 L 603.660156 391.5 L 600.289063 391.5 L 600.289063 331.609375 L 603.660156 331.609375 L 603.660156 361.292969 L 628.738281 361.292969 L 628.738281 331.609375 L 632.105469 331.609375 L 632.105469 391.5 L 628.738281 391.5 L 628.738281 364.660156 "/>
<path style=" stroke:none;fill-rule:nonzero;fill:rgb(64.698792%,32.899475%,10.598755%);fill-opacity:1;" d="M 533.191406 404.003906 L 533.191406 428.03125 L 316.160156 428.03125 L 316.160156 404.003906 L 311.636719 404.003906 L 311.636719 431.886719 L 537.699219 431.886719 L 537.699219 404.003906 "/>
<path style=" stroke:none;fill-rule:nonzero;fill:rgb(64.698792%,32.899475%,10.598755%);fill-opacity:1;" d="M 404.039063 36.03125 C 359.753906 39.320313 320.078125 54.90625 285.324219 82.628906 C 255.195313 106.660156 233.316406 137.0625 216.863281 171.617188 C 217.480469 172.023438 217.6875 172.246094 217.9375 172.300781 C 218.734375 172.480469 219.550781 172.589844 220.359375 172.738281 C 239.121094 176.253906 256.90625 182.425781 272.984375 192.863281 C 298.335938 209.320313 311.863281 232.316406 311.46875 263.023438 C 311.242188 280.320313 311.414063 297.621094 311.445313 314.925781 C 311.449219 315.855469 311.300781 316.8125 311.382813 317.761719 L 316.265625 317.761719 C 316.246094 304.046875 315.949219 290.265625 316.34375 276.5 C 316.9375 255.976563 313.621094 236.042969 308.0625 216.441406 C 298.261719 181.894531 282.472656 150.988281 253.171875 128.472656 C 255.324219 127.414063 256.996094 128.730469 258.65625 129.433594 C 281.515625 139.085938 300.238281 154.226563 316.050781 173.117188 C 338.007813 199.347656 351.726563 229.757813 360.828125 262.433594 C 363.15625 270.792969 365.015625 279.285156 367.226563 288.257813 C 367.929688 285.332031 367.53125 282.992188 367.269531 280.703125 C 363.527344 248.074219 357.121094 216.019531 346.375 184.925781 C 334.660156 151.023438 318.824219 119.527344 292.699219 94.132813 C 292.34375 93.699219 291.988281 93.265625 291.632813 92.828125 C 291.246094 92.757813 290.867188 92.636719 291.152344 92.15625 C 291.191406 92.09375 291.753906 92.339844 292.074219 92.441406 C 292.558594 92.761719 293.039063 93.085938 293.519531 93.40625 C 294.246094 93.777344 295.003906 94.09375 295.6875 94.53125 C 313.203125 105.734375 329.320313 118.703125 344.183594 133.21875 C 370.277344 158.707031 391.246094 187.757813 405.152344 221.660156 C 409.015625 231.082031 412.109375 240.777344 415.03125 250.5625 C 415.3125 249.828125 415.429688 249.132813 415.296875 248.484375 C 413.914063 241.636719 412.660156 234.761719 411.054688 227.964844 C 401.09375 185.878906 386.445313 145.625 364.042969 108.421875 C 354.101563 91.910156 342.304688 76.816406 329.3125 62.625 C 329.011719 62.375 328.710938 62.125 328.40625 61.875 C 328.9375 61.566406 329.433594 61.390625 329.652344 62.21875 C 330.1875 62.304688 330.765625 62.289063 331.25 62.496094 C 364.054688 76.34375 391.148438 97.132813 410.15625 127.664063 C 413.003906 132.242188 415.429688 137.089844 418.054688 141.8125 L 419.007813 141.378906 C 413.300781 106 400.851563 73.433594 377.226563 44.800781 C 400.414063 46.828125 413.503906 61.566406 424.695313 78.984375 C 441.152344 55.300781 457.386719 43.71875 471.742188 45.480469 C 467.003906 51.164063 462.675781 56.960938 458.800781 63.082031 C 454.914063 69.222656 451.429688 75.582031 448.324219 82.152344 C 445.28125 88.59375 442.550781 95.167969 440.226563 101.894531 C 437.859375 108.753906 435.722656 115.6875 434.074219 122.769531 C 432.464844 129.695313 430.953125 136.632813 430.398438 143.765625 C 439.316406 124.6875 451.574219 108.195313 467.253906 94.265625 C 482.765625 80.488281 500.054688 69.628906 519.695313 62.523438 C 495.722656 88.304688 477.988281 117.890625 464 149.851563 C 451.011719 179.523438 433.1875 240.113281 434.820313 249.613281 C 435.257813 248.226563 435.558594 247.355469 435.804688 246.472656 C 439.914063 231.644531 445.460938 217.375 452.476563 203.6875 C 467.144531 175.046875 486.828125 150.21875 510.3125 128.363281 C 524.382813 115.265625 539.3125 103.226563 555.894531 93.371094 C 556.394531 93.058594 556.894531 92.746094 557.394531 92.4375 C 557.714844 92.367188 558.277344 92.171875 558.324219 92.257813 C 558.597656 92.757813 558.132813 92.753906 557.820313 92.828125 C 557.414063 93.261719 557.011719 93.691406 556.609375 94.125 C 534.722656 115.523438 519.898438 141.429688 508.683594 169.582031 C 496.089844 201.195313 488.484375 234.101563 483.742188 267.71875 C 482.871094 273.890625 482.28125 280.101563 481.46875 287.113281 C 483.394531 285.3125 483.367188 283.785156 483.671875 282.371094 C 490.765625 249.429688 501.90625 218.078125 520.800781 189.914063 C 538.496094 163.535156 560.785156 142.3125 590.394531 129.617188 C 591.964844 128.945313 593.472656 127.722656 595.453125 128.398438 C 595.179688 130 593.71875 130.464844 592.730469 131.292969 C 588.730469 134.640625 584.804688 138.0625 581.207031 141.847656 C 566.539063 157.289063 556.152344 175.351563 548.46875 195.085938 C 540.210938 216.296875 534.546875 238.222656 533.382813 260.925781 C 532.421875 279.6875 533.183594 298.535156 533.199219 317.347656 C 533.199219 317.484375 533.210938 317.621094 533.226563 317.761719 L 537.914063 317.761719 C 537.914063 316.765625 537.914063 315.710938 537.914063 314.65625 C 537.914063 297.078125 537.953125 279.503906 537.90625 261.929688 C 537.828125 234.230469 549.320313 212.476563 571.539063 196.207031 C 582.933594 187.863281 595.601563 182.089844 608.964844 177.738281 C 616.621094 175.25 624.484375 173.554688 632.476563 172.058594 C 598.894531 98.710938 526.335938 26.949219 404.039063 36.03125 "/>
<path style=" stroke:none;fill-rule:nonzero;fill:rgb(64.698792%,32.899475%,10.598755%);fill-opacity:1;" d="M 262.480469 493.058594 L 239.359375 493.058594 L 239.359375 487.964844 L 260.34375 488.011719 C 260.613281 488.027344 260.839844 488.066406 261.015625 488.132813 C 261.144531 488.164063 261.445313 488.371094 261.929688 488.757813 L 262.3125 489.40625 L 262.480469 490.078125 Z M 267.359375 483.085938 L 266.445313 482.507813 L 265.847656 482.339844 L 265.390625 482.242188 L 244.117188 482.265625 C 243.863281 482.265625 243.621094 482.308594 243.398438 482.386719 C 243.0625 482.433594 242.796875 482.523438 242.605469 482.652344 L 241.738281 483.085938 L 241.113281 483.421875 L 240.394531 484.023438 L 239.816406 484.597656 L 239.359375 485.101563 L 239.359375 480.824219 L 232.628906 484.933594 L 232.628906 500.339844 C 232.628906 501.734375 232.054688 502.929688 230.898438 503.921875 C 229.855469 504.820313 228.589844 505.269531 227.101563 505.269531 C 226.347656 505.269531 225.667969 505.164063 225.058594 504.957031 C 224.511719 504.957031 223.878906 504.667969 223.160156 504.089844 C 221.941406 503.128906 221.238281 501.992188 221.042969 500.679688 L 220.179688 494.789063 L 219.9375 494.863281 L 219.675781 495.03125 L 219.242188 495.292969 C 218.695313 495.628906 218.136719 496.304688 217.558594 497.3125 L 217.152344 498.226563 L 216.980469 498.777344 L 216.839844 499.402344 L 216.671875 500.796875 L 216.671875 501.640625 C 216.671875 504.28125 217.726563 506.558594 219.84375 508.464844 C 221.957031 510.371094 224.378906 511.324219 227.101563 511.324219 C 230.449219 511.324219 233.335938 510.25 235.753906 508.105469 C 238.269531 505.859375 239.527344 503.089844 239.527344 499.789063 L 265.003906 499.789063 C 265.980469 499.789063 266.800781 499.46875 267.457031 498.828125 C 268.210938 498.089844 268.585938 497.234375 268.585938 496.253906 L 268.585938 486.066406 C 268.585938 485.28125 268.492188 484.691406 268.308594 484.296875 C 268.125 483.90625 267.808594 483.5 267.359375 483.085938 "/>
<path style=" stroke:none;fill-rule:nonzero;fill:rgb(64.698792%,32.899475%,10.598755%);fill-opacity:1;" d="M 254.863281 470.128906 C 255.472656 470.128906 256.105469 469.882813 256.761719 469.382813 C 257.386719 468.757813 257.699219 468.039063 257.699219 467.222656 C 257.699219 466.050781 257.082031 465.179688 255.847656 464.601563 C 255.496094 464.441406 255.109375 464.359375 254.695313 464.359375 C 253.972656 464.359375 253.332031 464.601563 252.769531 465.082031 C 252.210938 465.5625 251.929688 466.273438 251.929688 467.222656 C 251.929688 469.160156 252.90625 470.128906 254.863281 470.128906 "/>
<path style=" stroke:none;fill-rule:nonzero;fill:rgb(64.698792%,32.899475%,10.598755%);fill-opacity:1;" d="M 302.234375 506.808594 C 301.722656 506.808594 301.257813 506.933594 300.839844 507.191406 C 300.617188 507.304688 300.449219 507.414063 300.335938 507.527344 C 299.757813 508.074219 299.472656 508.785156 299.472656 509.667969 C 299.472656 510.613281 299.753906 511.332031 300.3125 511.828125 C 300.871094 512.328125 301.570313 512.574219 302.402344 512.574219 C 303.21875 512.574219 303.894531 512.300781 304.421875 511.746094 C 304.953125 511.191406 305.214844 510.5 305.214844 509.667969 C 305.214844 508.851563 304.910156 508.121094 304.300781 507.480469 C 303.726563 507.03125 303.035156 506.808594 302.234375 506.808594 "/>
<path style=" stroke:none;fill-rule:nonzero;fill:rgb(64.698792%,32.899475%,10.598755%);fill-opacity:1;" d="M 294.617188 507.574219 C 294.054688 507.0625 293.359375 506.804688 292.523438 506.804688 C 291.722656 506.804688 291.039063 507.042969 290.46875 507.515625 C 289.902344 507.988281 289.617188 508.707031 289.617188 509.667969 C 289.617188 510.546875 289.894531 511.253906 290.445313 511.78125 C 290.996094 512.3125 291.714844 512.574219 292.597656 512.574219 C 293.316406 512.574219 293.976563 512.335938 294.566406 511.855469 C 295.160156 511.375 295.457031 510.644531 295.457031 509.667969 C 295.457031 509.1875 295.394531 508.769531 295.265625 508.417969 C 295.152344 508.160156 294.9375 507.878906 294.617188 507.574219 "/>
<path style=" stroke:none;fill-rule:nonzero;fill:rgb(64.698792%,32.899475%,10.598755%);fill-opacity:1;" d="M 326.800781 492.84375 L 326.292969 492.625 L 325.886719 492.386719 C 325.390625 492.097656 324.925781 491.535156 324.492188 490.703125 L 324.226563 490.199219 L 324.035156 489.597656 L 323.890625 488.730469 C 323.890625 488.15625 324.148438 487.84375 324.660156 487.796875 L 334.972656 487.796875 L 334.972656 477.964844 L 333.238281 480.441406 C 333.160156 480.519531 332.878906 480.65625 332.398438 480.847656 L 331.894531 480.945313 L 331.34375 480.945313 L 330.382813 481.015625 L 329.324219 481.183594 L 328.097656 481.28125 L 325.164063 481.113281 L 324.15625 480.992188 L 323.480469 480.992188 C 322.648438 480.992188 321.9375 481.089844 321.34375 481.28125 C 320.671875 481.507813 320.203125 481.730469 319.949219 481.953125 L 319.394531 482.460938 L 319.011719 482.867188 L 318.433594 483.636719 L 318.148438 484.09375 L 317.882813 484.527344 L 317.472656 485.777344 L 317.328125 486.328125 L 317.328125 487.578125 C 317.328125 487.738281 317.359375 487.90625 317.425781 488.082031 L 317.523438 488.730469 L 317.761719 489.40625 L 318.21875 490.652344 L 318.722656 491.785156 L 319.394531 493.058594 L 307.617188 493.058594 L 307.617188 482.460938 L 303.917969 484.886719 C 303.308594 485.285156 302.789063 485.90625 302.355469 486.738281 C 302.050781 487.476563 301.898438 488.25 301.898438 489.070313 L 301.898438 493.058594 L 280.867188 493.058594 L 280.53125 465.707031 C 280.386719 465.273438 280.082031 464.859375 279.617188 464.457031 L 279.113281 464.023438 L 278.609375 463.664063 L 275.101563 461.378906 L 275.101563 499.789063 L 338.960938 499.789063 L 338.960938 493.058594 L 327.257813 493.011719 "/>
<path style=" stroke:none;fill-rule:nonzero;fill:rgb(64.698792%,32.899475%,10.598755%);fill-opacity:1;" d="M 354.464844 513.703125 C 353.648438 513.703125 352.941406 513.929688 352.347656 514.378906 C 351.851563 514.875 351.605469 515.492188 351.605469 516.226563 C 351.605469 517.011719 351.898438 517.636719 352.492188 518.101563 C 353.035156 518.535156 353.71875 518.753906 354.535156 518.753906 C 355.320313 518.753906 355.984375 518.523438 356.53125 518.066406 C 357.074219 517.609375 357.347656 516.996094 357.347656 516.226563 C 357.347656 514.546875 356.386719 513.703125 354.464844 513.703125 "/>
<path style=" stroke:none;fill-rule:nonzero;fill:rgb(64.698792%,32.899475%,10.598755%);fill-opacity:1;" d="M 365.136719 513.703125 C 364.367188 513.703125 363.675781 513.929688 363.066406 514.378906 C 362.507813 514.890625 362.226563 515.507813 362.226563 516.226563 C 362.226563 517.03125 362.53125 517.664063 363.140625 518.128906 C 363.699219 518.542969 364.398438 518.753906 365.230469 518.753906 C 367.074219 518.753906 367.996094 517.910156 367.996094 516.226563 C 367.996094 514.546875 367.042969 513.703125 365.136719 513.703125 "/>
<path style=" stroke:none;fill-rule:nonzero;fill:rgb(64.698792%,32.899475%,10.598755%);fill-opacity:1;" d="M 416.160156 493.058594 L 394.144531 493.058594 L 394.144531 487.964844 L 412.699219 487.964844 C 413.230469 487.964844 413.660156 488.003906 414 488.082031 L 414.601563 488.300781 L 415.007813 488.589844 L 415.394531 488.925781 L 415.824219 489.40625 L 416.066406 489.910156 L 416.160156 490.488281 Z M 421.066406 483.804688 L 420.535156 483.203125 C 420.425781 483.125 420.300781 483.035156 420.164063 482.941406 C 420.027344 482.84375 419.917969 482.789063 419.839844 482.773438 C 419.664063 482.675781 419.398438 482.570313 419.046875 482.460938 L 418.132813 482.339844 L 417.121094 482.242188 L 399.699219 482.242188 C 398.625 482.242188 397.589844 482.523438 396.597656 483.085938 L 395.828125 483.515625 L 395.203125 483.972656 L 394.699219 484.429688 L 394.144531 485.101563 L 394.144531 480.824219 L 388.402344 484.933594 L 388.402344 493.058594 L 381.574219 493.058594 L 381.574219 478.324219 L 380.492188 479.261719 L 379.269531 480.175781 L 378.019531 480.847656 L 376.625 481.28125 C 375.519531 481.328125 373.859375 481.457031 371.648438 481.664063 C 371.425781 481.683594 371.136719 481.722656 370.785156 481.785156 L 370.421875 481.882813 L 370.109375 482.003906 C 368.894531 482.289063 367.460938 483.414063 365.808594 485.367188 C 365.503906 485.71875 365.257813 486.074219 365.0625 486.425781 L 364.414063 487.578125 L 364.007813 488.730469 L 363.574219 490.152344 L 363.382813 491.496094 L 363.285156 493.058594 L 363.285156 500.339844 C 363.285156 501.621094 362.667969 502.671875 361.433594 503.488281 C 360.328125 504.226563 359.015625 504.59375 357.492188 504.59375 C 355.875 504.59375 354.59375 504.226563 353.648438 503.488281 C 352.414063 502.769531 351.796875 501.71875 351.796875 500.339844 L 351.722656 492.386719 L 351.460938 492.507813 L 350.714844 493.011719 L 349.777344 493.78125 L 349.152344 494.40625 L 348.3125 495.222656 C 348.117188 495.414063 347.925781 495.671875 347.734375 495.992188 L 346.917969 497.386719 L 346.386719 498.828125 L 346.125 500.390625 L 346.003906 502.097656 C 345.828125 504.628906 347.046875 506.871094 349.65625 508.824219 C 351.882813 510.492188 354.496094 511.324219 357.492188 511.324219 C 358.804688 511.324219 360.238281 511.019531 361.796875 510.410156 C 363.109375 509.898438 364.335938 509.164063 365.472656 508.199219 C 366.273438 507.542969 366.90625 506.902344 367.371094 506.277344 C 368.492188 504.804688 369.054688 503.410156 369.054688 502.097656 L 369.054688 493.058594 C 369.054688 491.984375 369.109375 491.3125 369.222656 491.039063 C 369.238281 490.75 369.375 490.414063 369.628906 490.03125 C 369.808594 489.757813 370.078125 489.4375 370.445313 489.070313 L 370.6875 488.757813 L 371.144531 488.347656 L 372.082031 487.746094 L 373.113281 487.457031 C 373.402344 487.378906 373.730469 487.339844 374.101563 487.339844 L 374.4375 487.339844 L 374.941406 487.410156 L 375.78125 487.625 L 375.78125 499.789063 L 419.046875 499.789063 C 419.496094 499.789063 419.832031 499.714844 420.054688 499.570313 C 420.183594 499.523438 420.328125 499.445313 420.488281 499.332031 L 420.945313 498.996094 C 421.089844 498.914063 421.210938 498.804688 421.304688 498.660156 L 421.664063 498.105469 L 421.835938 497.503906 L 421.882813 496.929688 L 421.882813 485.703125 C 421.882813 485.320313 421.753906 484.855469 421.496094 484.308594 "/>
<path style=" stroke:none;fill-rule:nonzero;fill:rgb(64.698792%,32.899475%,10.598755%);fill-opacity:1;" d="M 409.335938 472.941406 C 410.167969 472.941406 410.847656 472.679688 411.367188 472.160156 C 411.886719 471.640625 412.148438 470.960938 412.148438 470.128906 C 412.148438 469.28125 411.867188 468.585938 411.308594 468.039063 C 410.746094 467.492188 410.03125 467.222656 409.167969 467.222656 C 408.382813 467.222656 407.71875 467.507813 407.171875 468.085938 C 406.628906 468.664063 406.355469 469.34375 406.355469 470.128906 C 406.355469 470.996094 406.660156 471.707031 407.269531 472.269531 C 407.957031 472.71875 408.648438 472.941406 409.335938 472.941406 "/>
<path style=" stroke:none;fill-rule:nonzero;fill:rgb(64.698792%,32.899475%,10.598755%);fill-opacity:1;" d="M 450.484375 471.234375 C 451.378906 471.234375 452.089844 471.007813 452.609375 470.550781 C 453.128906 470.09375 453.390625 469.367188 453.390625 468.375 C 453.390625 467.542969 453.128906 466.820313 452.597656 466.210938 C 452.039063 465.746094 451.371094 465.515625 450.605469 465.515625 C 449.789063 465.515625 449.105469 465.738281 448.5625 466.1875 C 447.9375 466.699219 447.621094 467.429688 447.621094 468.375 C 447.621094 469.238281 447.902344 469.953125 448.464844 470.515625 C 449.042969 470.996094 449.714844 471.234375 450.484375 471.234375 "/>
<path style=" stroke:none;fill-rule:nonzero;fill:rgb(64.698792%,32.899475%,10.598755%);fill-opacity:1;" d="M 458.632813 471.066406 C 459.046875 471.179688 459.402344 471.234375 459.691406 471.234375 C 460.539063 471.234375 461.242188 470.996094 461.804688 470.515625 C 462.363281 470.03125 462.644531 469.320313 462.644531 468.375 C 462.644531 467.542969 462.386719 466.855469 461.863281 466.320313 C 461.34375 465.78125 460.675781 465.515625 459.859375 465.515625 C 457.871094 465.515625 456.878906 466.46875 456.878906 468.375 C 456.878906 469.191406 457.175781 469.921875 457.765625 470.5625 C 458.007813 470.753906 458.296875 470.921875 458.632813 471.066406 "/>
<path style=" stroke:none;fill-rule:nonzero;fill:rgb(64.698792%,32.899475%,10.598755%);fill-opacity:1;" d="M 458.054688 486.785156 L 454.402344 486.785156 C 453.90625 486.785156 453.492188 486.628906 453.164063 486.316406 C 452.835938 486.003906 452.671875 485.632813 452.671875 485.199219 C 452.671875 484.765625 452.863281 484.40625 453.246094 484.117188 C 453.632813 483.828125 454.039063 483.683594 454.472656 483.683594 L 458.054688 483.683594 Z M 471.730469 464.457031 C 471.394531 464.695313 471.203125 464.890625 471.15625 465.035156 L 470.820313 465.683594 L 470.433594 493.058594 L 463.871094 493.058594 L 463.871094 477.410156 C 463.117188 478.117188 462.316406 478.644531 461.46875 479 L 460.289063 479.480469 L 459.664063 479.597656 L 458.992188 479.671875 L 452.550781 479.671875 C 451.074219 479.671875 449.769531 480.222656 448.632813 481.328125 L 448.128906 481.953125 L 447.453125 483.179688 C 447.3125 483.550781 447.207031 483.890625 447.144531 484.214844 C 447.046875 484.597656 447 484.949219 447 485.269531 C 447 486.714844 447.503906 488.035156 448.511719 489.238281 C 449.476563 490.375 450.746094 490.945313 452.335938 490.945313 L 458.054688 490.945313 L 458.054688 493.058594 L 434.164063 493.058594 L 433.828125 465.707031 C 433.683594 465.273438 433.378906 464.859375 432.914063 464.457031 L 432.410156 464.023438 L 431.90625 463.664063 L 428.398438 461.382813 L 428.398438 499.789063 L 476.15625 499.789063 L 476.15625 461.382813 L 472.742188 463.664063 C 472.292969 463.902344 471.957031 464.167969 471.730469 464.457031 "/>
<path style=" stroke:none;fill-rule:nonzero;fill:rgb(64.698792%,32.899475%,10.598755%);fill-opacity:1;" d="M 486.414063 464.695313 L 485.910156 465.300781 L 485.503906 466.019531 L 485.285156 466.980469 L 485.214844 468.039063 L 485.214844 499.789063 L 490.933594 499.789063 L 490.933594 461.382813 L 486.921875 464.191406 "/>
<path style=" stroke:none;fill-rule:nonzero;fill:rgb(64.698792%,32.899475%,10.598755%);fill-opacity:1;" d="M 522.519531 471.8125 C 523.222656 471.8125 523.871094 471.585938 524.464844 471.140625 C 525.039063 470.578125 525.328125 469.847656 525.328125 468.953125 C 525.328125 468.117188 525.058594 467.425781 524.511719 466.871094 C 523.96875 466.320313 523.277344 466.042969 522.445313 466.042969 C 521.773438 466.042969 521.121094 466.300781 520.496094 466.8125 C 519.90625 467.40625 519.609375 468.117188 519.609375 468.953125 C 519.609375 469.816406 519.90625 470.546875 520.496094 471.140625 C 521.042969 471.585938 521.714844 471.8125 522.519531 471.8125 "/>
<path style=" stroke:none;fill-rule:nonzero;fill:rgb(64.698792%,32.899475%,10.598755%);fill-opacity:1;" d="M 511.53125 471.644531 L 512.011719 471.738281 L 512.710938 471.8125 C 513.542969 471.8125 514.226563 471.542969 514.753906 471.007813 C 515.28125 470.46875 515.546875 469.785156 515.546875 468.953125 C 515.546875 468.085938 515.261719 467.386719 514.691406 466.847656 C 514.125 466.3125 513.4375 466.042969 512.636719 466.042969 C 511.871094 466.042969 511.214844 466.300781 510.667969 466.8125 C 510.121094 467.324219 509.851563 468.039063 509.851563 468.953125 C 509.851563 469.863281 510.132813 470.59375 510.691406 471.140625 "/>
<path style=" stroke:none;fill-rule:nonzero;fill:rgb(64.698792%,32.899475%,10.598755%);fill-opacity:1;" d="M 577.96875 493.058594 L 571.214844 493.058594 L 571.214844 491.976563 C 571.214844 491.527344 571.277344 491.199219 571.40625 490.992188 C 571.515625 490.398438 571.902344 489.757813 572.558594 489.070313 C 573.648438 487.914063 574.90625 487.339844 576.332031 487.339844 L 576.789063 487.339844 L 577.96875 487.625 Z M 520.496094 493.058594 L 513.695313 493.058594 L 513.695313 491.882813 C 513.695313 491.496094 513.738281 491.214844 513.816406 491.039063 L 514.273438 490.078125 L 514.609375 489.597656 L 515.113281 489.070313 C 516.316406 487.820313 517.535156 487.242188 518.769531 487.339844 L 519.367188 487.386719 L 519.753906 487.410156 L 520.496094 487.625 Z M 581.5 481.113281 C 580.859375 481.546875 579.882813 481.9375 578.566406 482.289063 L 577.367188 482.386719 L 574.578125 482.507813 L 574.023438 482.578125 C 573.640625 482.578125 573.382813 482.613281 573.257813 482.675781 L 572.726563 482.796875 C 571.734375 483.019531 570.820313 483.507813 569.988281 484.261719 C 568.671875 485.433594 567.609375 486.753906 566.789063 488.226563 L 565.949219 490.4375 L 565.398438 493.058594 L 558.28125 493.058594 L 546.578125 493.011719 L 546.121094 492.84375 L 545.613281 492.625 L 545.207031 492.386719 C 544.710938 492.097656 544.246094 491.535156 543.8125 490.703125 L 543.550781 490.199219 L 543.355469 489.597656 L 543.210938 488.730469 C 543.210938 488.15625 543.46875 487.84375 543.980469 487.796875 L 554.292969 487.796875 L 554.292969 477.964844 L 552.5625 480.441406 C 552.480469 480.519531 552.199219 480.65625 551.722656 480.847656 L 551.214844 480.945313 L 550.664063 480.945313 L 549.699219 481.015625 L 548.644531 481.183594 L 547.417969 481.28125 L 544.484375 481.113281 L 543.476563 480.992188 L 542.804688 480.992188 C 541.96875 480.992188 541.257813 481.089844 540.664063 481.28125 C 539.992188 481.507813 539.527344 481.730469 539.269531 481.953125 L 538.71875 482.460938 L 538.332031 482.867188 L 537.757813 483.636719 L 537.46875 484.09375 L 537.203125 484.527344 L 536.796875 485.777344 L 536.652344 486.328125 L 536.652344 487.578125 C 536.652344 487.738281 536.683594 487.90625 536.746094 488.082031 L 536.84375 488.730469 L 537.082031 489.40625 L 537.539063 490.65625 L 538.042969 491.785156 L 538.71875 493.058594 L 526.21875 493.058594 L 526.21875 478.324219 L 525.160156 479.261719 L 523.960938 480.175781 C 523.335938 480.65625 522.382813 481.039063 521.101563 481.328125 L 519.703125 481.449219 L 519.273438 481.449219 L 518.816406 481.523438 L 516.796875 481.523438 L 516.507813 481.617188 C 516.171875 481.617188 515.945313 481.632813 515.835938 481.664063 C 515.628906 481.683594 515.425781 481.738281 515.234375 481.835938 C 514.128906 482.140625 513.207031 482.613281 512.472656 483.253906 C 509.472656 485.816406 507.976563 489.085938 507.976563 493.058594 L 507.976563 499.789063 L 581.140625 499.789063 C 581.332031 499.789063 581.613281 499.691406 581.980469 499.5 L 582.222656 499.332031 C 582.316406 499.285156 582.46875 499.121094 582.679688 498.851563 L 583.15625 498.226563 L 583.496094 497.335938 L 583.6875 496.496094 L 583.734375 495.484375 L 583.734375 479.335938 L 582.652344 480.320313 "/>
<path style=" stroke:none;fill-rule:nonzero;fill:rgb(64.698792%,32.899475%,10.598755%);fill-opacity:1;" d="M 624.953125 492.890625 L 624.257813 492.433594 L 623.777344 492.097656 L 623.273438 491.664063 L 622.265625 490.824219 C 621.351563 490.054688 620.726563 489.398438 620.390625 488.851563 L 619.402344 487.21875 L 618.105469 484.308594 L 616.542969 481.785156 C 615.53125 480.152344 614.316406 479.109375 612.890625 478.660156 L 612.503906 478.539063 L 612 478.492188 C 611.230469 478.492188 610.503906 478.734375 609.8125 479.214844 L 609.261719 479.597656 C 609.132813 479.648438 608.980469 479.785156 608.804688 480.007813 L 607.964844 481.015625 L 607.964844 487.050781 C 608.28125 486.167969 609.125 485.59375 610.484375 485.320313 L 610.703125 485.320313 C 611.390625 485.320313 612.007813 485.769531 612.554688 486.664063 L 613.828125 489.597656 L 614.453125 490.582031 L 615.195313 491.496094 L 617.144531 493.058594 L 596.738281 493.058594 L 596.402344 465.707031 C 596.257813 465.273438 595.953125 464.859375 595.488281 464.457031 L 594.984375 464.023438 L 594.476563 463.664063 L 590.96875 461.378906 L 590.96875 499.789063 L 603.730469 499.789063 L 603.730469 499.765625 L 622.863281 499.667969 L 623.535156 499.355469 L 624.089844 498.996094 L 624.546875 498.5625 L 624.933594 498.058594 L 625.074219 497.503906 L 625.21875 496.929688 L 625.21875 493.058594 "/>
<path style=" stroke:none;fill-rule:nonzero;fill:rgb(64.698792%,32.899475%,10.598755%);fill-opacity:1;" d="M 612.9375 506.613281 C 612.28125 506.613281 611.625 506.808594 610.964844 507.191406 C 610.421875 507.609375 610.148438 508.183594 610.148438 508.921875 C 610.148438 509.59375 610.429688 510.179688 610.992188 510.675781 L 611.351563 510.894531 L 611.808594 511.0625 L 612.890625 511.230469 C 614.714844 511.230469 615.628906 510.460938 615.628906 508.921875 C 615.628906 508.3125 615.371094 507.753906 614.859375 507.238281 C 614.363281 506.824219 613.722656 506.613281 612.9375 506.613281 "/>
<path style=" stroke:none;fill-rule:nonzero;fill:rgb(64.698792%,32.899475%,10.598755%);fill-opacity:1;" d="M 236.105469 552.234375 C 236.105469 557.515625 232.617188 560.25 226.96875 560.25 C 221.433594 560.25 217.945313 557.515625 217.945313 552.234375 L 217.945313 526.167969 L 223.59375 526.167969 L 223.59375 552.089844 C 223.59375 554.539063 224.867188 555.449219 226.914063 555.449219 C 228.964844 555.449219 230.234375 554.539063 230.234375 552.089844 L 230.234375 526.167969 L 236.105469 526.167969 "/>
<path style=" stroke:none;fill-rule:nonzero;fill:rgb(64.698792%,32.899475%,10.598755%);fill-opacity:1;" d="M 255.425781 559.769531 L 247.730469 537.496094 L 247.617188 537.496094 L 247.617188 559.769531 L 242.082031 559.769531 L 242.082031 526.167969 L 248.613281 526.167969 L 255.535156 546.1875 L 255.644531 546.1875 L 255.644531 526.167969 L 261.179688 526.167969 L 261.179688 559.769531 "/>
<path style=" stroke:none;fill-rule:nonzero;fill:rgb(64.698792%,32.899475%,10.598755%);fill-opacity:1;" d="M 267.492188 559.769531 L 273.359375 559.769531 L 273.359375 526.167969 L 267.492188 526.167969 Z M 267.492188 559.769531 "/>
<path style=" stroke:none;fill-rule:nonzero;fill:rgb(64.698792%,32.899475%,10.598755%);fill-opacity:1;" d="M 284.097656 559.769531 L 277.566406 526.167969 L 283.546875 526.167969 L 287.921875 551.800781 L 288.03125 551.800781 L 292.347656 526.167969 L 298.214844 526.167969 L 291.683594 559.769531 "/>
<path style=" stroke:none;fill-rule:nonzero;fill:rgb(64.698792%,32.899475%,10.598755%);fill-opacity:1;" d="M 308.289063 530.871094 L 308.289063 540.378906 L 316.871094 540.378906 L 316.871094 545.082031 L 308.289063 545.082031 L 308.289063 555.066406 L 318.921875 555.066406 L 318.921875 559.769531 L 302.421875 559.769531 L 302.421875 526.167969 L 318.921875 526.167969 L 318.921875 530.871094 "/>
<path style=" stroke:none;fill-rule:nonzero;fill:rgb(64.698792%,32.899475%,10.598755%);fill-opacity:1;" d="M 329.214844 540.855469 L 331.597656 540.855469 C 334.421875 540.855469 335.691406 539.5625 335.691406 536.730469 L 335.691406 535 C 335.691406 532.167969 334.421875 530.871094 331.597656 530.871094 L 329.214844 530.871094 Z M 331.929688 545.5625 L 329.214844 545.5625 L 329.214844 559.769531 L 323.347656 559.769531 L 323.347656 526.167969 L 331.816406 526.167969 C 338.128906 526.167969 341.5625 529.144531 341.5625 534.664063 L 341.5625 537.066406 C 341.5625 540.617188 340.121094 543.113281 337.410156 544.457031 L 342.777344 559.769531 L 336.578125 559.769531 "/>
<path style=" stroke:none;fill-rule:nonzero;fill:rgb(64.698792%,32.899475%,10.598755%);fill-opacity:1;" d="M 362.707031 533.226563 L 362.707031 534.089844 L 357.0625 534.570313 L 357.0625 533.320313 C 357.0625 531.402344 356.011719 530.390625 354.070313 530.390625 C 352.136719 530.390625 351.082031 531.402344 351.082031 533.320313 L 351.082031 533.753906 C 351.082031 535.722656 352.078125 537.402344 356.011719 540.28125 C 361.378906 544.21875 363.371094 547 363.371094 551.035156 L 363.371094 552.714844 C 363.371094 557.515625 360.105469 560.25 354.292969 560.25 C 348.480469 560.25 345.214844 557.515625 345.214844 552.714844 L 345.214844 550.457031 L 350.859375 549.976563 L 350.859375 552.378906 C 350.859375 554.492188 351.96875 555.546875 354.183594 555.546875 C 356.398438 555.546875 357.503906 554.492188 357.503906 552.378906 L 357.503906 551.273438 C 357.503906 549.160156 356.34375 547.480469 352.410156 544.601563 C 347.039063 540.664063 345.214844 537.882813 345.214844 533.945313 L 345.214844 533.226563 C 345.214844 528.425781 348.371094 525.6875 353.960938 525.6875 C 359.554688 525.6875 362.707031 528.425781 362.707031 533.226563 "/>
<path style=" stroke:none;fill-rule:nonzero;fill:rgb(64.698792%,32.899475%,10.598755%);fill-opacity:1;" d="M 366.914063 559.769531 L 372.78125 559.769531 L 372.78125 526.167969 L 366.914063 526.167969 Z M 366.914063 559.769531 "/>
<path style=" stroke:none;fill-rule:nonzero;fill:rgb(64.698792%,32.899475%,10.598755%);fill-opacity:1;" d="M 388.613281 530.96875 L 388.613281 559.769531 L 382.746094 559.769531 L 382.746094 530.96875 L 376.492188 530.96875 L 376.492188 526.167969 L 394.871094 526.167969 L 394.871094 530.96875 "/>
<path style=" stroke:none;fill-rule:nonzero;fill:rgb(64.698792%,32.899475%,10.598755%);fill-opacity:1;" d="M 403.949219 524.246094 L 407.160156 518.96875 L 413.082031 518.96875 L 408.265625 524.246094 Z M 404.445313 530.871094 L 404.445313 540.378906 L 413.027344 540.378906 L 413.027344 545.082031 L 404.445313 545.082031 L 404.445313 555.066406 L 415.074219 555.066406 L 415.074219 559.769531 L 398.578125 559.769531 L 398.578125 526.167969 L 415.074219 526.167969 L 415.074219 530.871094 "/>
<path style=" stroke:none;fill-rule:nonzero;fill:rgb(64.698792%,32.899475%,10.598755%);fill-opacity:1;" d="M 448.125 533.753906 L 448.125 536.777344 L 442.480469 537.015625 L 442.480469 534.28125 C 442.480469 531.59375 441.316406 530.390625 439.15625 530.390625 C 436.996094 530.390625 435.835938 531.59375 435.835938 533.800781 L 435.835938 552.136719 C 435.835938 554.347656 436.996094 555.546875 439.15625 555.546875 C 441.316406 555.546875 442.480469 554.347656 442.480469 551.660156 L 442.480469 547.914063 L 448.125 548.152344 L 448.125 552.1875 C 448.125 557.273438 444.746094 560.25 438.988281 560.25 C 433.289063 560.25 429.96875 557.273438 429.96875 552.1875 L 429.96875 533.753906 C 429.96875 528.664063 433.289063 525.6875 438.988281 525.6875 C 444.746094 525.6875 448.125 528.664063 448.125 533.753906 "/>
<path style=" stroke:none;fill-rule:nonzero;fill:rgb(64.698792%,32.899475%,10.598755%);fill-opacity:1;" d="M 458.808594 547.53125 L 463.734375 547.53125 L 461.355469 533.367188 L 461.1875 533.367188 Z M 465.785156 559.769531 L 464.511719 552.136719 L 458.035156 552.136719 L 456.761719 559.769531 L 450.890625 559.769531 L 457.589844 526.167969 L 465.0625 526.167969 L 471.761719 559.769531 "/>
<path style=" stroke:none;fill-rule:nonzero;fill:rgb(64.698792%,32.899475%,10.598755%);fill-opacity:1;" d="M 481.839844 555.066406 L 484.164063 555.066406 C 486.984375 555.066406 488.261719 553.769531 488.261719 550.9375 L 488.261719 535 C 488.261719 532.167969 486.984375 530.871094 484.164063 530.871094 L 481.839844 530.871094 Z M 484.386719 526.167969 C 490.695313 526.167969 494.128906 529.144531 494.128906 534.664063 L 494.128906 551.273438 C 494.128906 556.792969 490.695313 559.769531 484.386719 559.769531 L 475.96875 559.769531 L 475.96875 526.167969 "/>
<path style=" stroke:none;fill-rule:nonzero;fill:rgb(64.698792%,32.899475%,10.598755%);fill-opacity:1;" d="M 499.828125 559.769531 L 505.699219 559.769531 L 505.699219 526.167969 L 499.828125 526.167969 Z M 499.828125 559.769531 "/>
<path style=" stroke:none;fill-rule:nonzero;fill:rgb(64.698792%,32.899475%,10.598755%);fill-opacity:1;" d="M 527.785156 547.53125 L 532.714844 547.53125 L 530.332031 533.367188 L 530.164063 533.367188 Z M 534.761719 559.769531 L 533.484375 552.136719 L 527.011719 552.136719 L 525.734375 559.769531 L 519.867188 559.769531 L 526.566406 526.167969 L 534.039063 526.167969 L 540.738281 559.769531 "/>
<path style=" stroke:none;fill-rule:nonzero;fill:rgb(64.698792%,32.899475%,10.598755%);fill-opacity:1;" d="M 553.304688 559.769531 L 547.4375 559.769531 L 547.4375 544.554688 L 539.300781 526.167969 L 545.5 526.167969 L 550.425781 538.074219 L 550.535156 538.074219 L 555.242188 526.167969 L 561.332031 526.167969 L 553.304688 544.601563 "/>
<path style=" stroke:none;fill-rule:nonzero;fill:rgb(64.698792%,32.899475%,10.598755%);fill-opacity:1;" d="M 574.121094 559.769531 L 568.253906 559.769531 L 568.253906 544.554688 L 560.113281 526.167969 L 566.3125 526.167969 L 571.242188 538.074219 L 571.351563 538.074219 L 576.058594 526.167969 L 582.144531 526.167969 L 574.121094 544.601563 "/>
<path style=" stroke:none;fill-rule:nonzero;fill:rgb(64.698792%,32.899475%,10.598755%);fill-opacity:1;" d="M 588.625 547.53125 L 593.550781 547.53125 L 591.171875 533.367188 L 591.003906 533.367188 Z M 595.601563 559.769531 L 594.328125 552.136719 L 587.851563 552.136719 L 586.578125 559.769531 L 580.710938 559.769531 L 587.40625 526.167969 L 594.878906 526.167969 L 601.578125 559.769531 "/>
<path style=" stroke:none;fill-rule:nonzero;fill:rgb(64.698792%,32.899475%,10.598755%);fill-opacity:1;" d="M 611.652344 555.066406 L 613.980469 555.066406 C 616.800781 555.066406 618.074219 553.769531 618.074219 550.9375 L 618.074219 535 C 618.074219 532.167969 616.800781 530.871094 613.980469 530.871094 L 611.652344 530.871094 Z M 614.199219 526.167969 C 620.511719 526.167969 623.945313 529.144531 623.945313 534.664063 L 623.945313 551.273438 C 623.945313 556.792969 620.511719 559.769531 614.199219 559.769531 L 605.785156 559.769531 L 605.785156 526.167969 "/>
</g>
</svg>
